<svg width="512" height="512" viewBox="0 0 512 512" fill="none" xmlns="http://www.w3.org/2000/svg">
<g clip-path="url(#clip0_10_45)">
<rect width="512" height="512" fill="#BED63F"/>
<mask id="mask0_10_45" style="mask-type:alpha" maskUnits="userSpaceOnUse" x="0" y="0" width="512" height="512">
<rect width="512" height="512" fill="white"/>
</mask>
<g mask="url(#mask0_10_45)">
</g>
<g clip-path="url(#clip1_10_45)">
<path d="M68.2496 34H74.4892C76.127 36.0055 81.1785 40.7578 82.1726 42.3152C84.3815 44.404 88.3298 48.0402 90.0009 50.5607C95.1672 60.0812 99.0468 69.3529 102.558 79.5915C103.672 82.8395 105.094 86.7505 107.175 89.5397C120.381 104.197 140.411 111.057 151.458 128.433C155.339 134.537 158.807 140.86 161.537 147.593C162.856 150.665 163.9 160.249 165.657 161.688C169.101 161.582 174.74 158.197 178.123 157.159C186.824 154.542 195.753 152.093 202.715 145.861C205.256 143.033 205.879 138.301 207.195 134.916C216.881 109.994 213.588 75.8893 242.043 62.9335C253.07 57.9128 266.366 57.8998 277.861 54.157C286.781 51.2528 295.57 48.9292 303.698 43.9771C311.367 39.3386 312.256 35.7838 322.111 38.2077C329.633 45.2929 329.029 48.9118 332.191 57.8107C331.243 60.9993 330.566 64.4242 329.427 67.4331C325.197 78.5427 317.154 87.7846 306.737 93.5066C301.946 96.1004 297.425 97.2127 292.668 99.5513C301.885 117.767 305.362 124.009 304.937 145.097C304.866 148.589 305.294 152.761 304.36 156.125C302.924 161.295 299.185 170.205 299.646 175.356C300.212 181.681 316.579 204.91 321.283 210.261C323.988 213.336 330.025 219.159 333.749 220.575C334.854 220.996 338.594 221.282 339.643 220.759C339.903 220.629 340.118 220.451 340.347 220.278C342.807 218.416 345.527 215.834 348.311 214.51C350.475 213.482 371.448 208.653 373.986 208.491C374.307 208.471 374.583 208.391 374.883 208.281C377.356 206.649 383.237 206.788 385.749 208.22C390.578 208.751 397.505 211.5 400.697 211.701C415.079 212.605 427.656 212.941 437.555 224.922C445.967 235.103 446.046 243.424 449.141 255.003C449.701 257.091 463.742 268.29 464.773 272.858C466.674 276.395 468.69 287.73 471 289.41V324.018C469.226 325.741 468.044 333.449 467.274 336.222C465.369 343.097 463.404 349.895 460.757 356.54C454.042 373.39 431.821 400.355 413.648 404.751C409.64 406.54 401.65 404.517 399.526 406.818C397.75 408.741 395.833 414.948 393.861 417.494C392.305 420.804 385.265 437.046 386.128 439.809C387.81 441 391.393 440.27 393.707 440.754C394.938 441.103 396.064 441.377 397.236 441.901C398.417 442.326 399.554 442.703 400.665 443.291C405.363 454.787 406.778 458.943 407.057 471.504C412.367 474.532 413.541 474.513 419.293 475.89C422.781 476.756 426.217 477.815 429.588 479.062C437.809 482.178 446.673 487.859 454.273 492.146C459.245 501.523 466.047 501.658 467.833 516.155C469.556 520.728 469.71 529.692 468.155 534.229C466.686 543.915 465.182 547.305 460.317 555.459C459.055 557.567 462.769 570.647 459.956 575.411C455.535 582.886 448.852 587.638 442.518 593.426C436.548 598.694 427.141 596.173 421.412 591.921C417.238 601.294 414.053 611.29 409.866 620.618C399.334 644.079 389.195 667.981 373.502 688.588C371.284 691.502 360.501 706.341 358.654 707.103C356.546 709.477 353.36 712.577 351.562 714.808C351.478 720.052 352.108 726.908 350.308 731.723C349.878 734.879 347.552 739.901 347.431 742.969C353.074 741.223 360.586 740.679 366.319 742.1C373.605 744.232 379.527 749.115 382.995 755.859C398.975 786.926 377.926 806.497 347.954 812.245C343.67 813.067 338.022 813.495 333.84 814.393C329.143 816.258 311.529 816.235 306.929 814.873C304.417 814.246 300.732 812.956 298.187 814.48C294.071 816.937 291.38 823.174 287.939 826.024C275.829 836.052 259.459 842.915 243.877 844.884C241.034 845.241 239.054 845.245 236.856 847H223.824C222.352 845.468 214.334 843.264 211.246 841.895C207.958 840.438 204.796 838.707 201.795 836.726C196.902 833.431 196.265 829.212 193.972 827.596C185.687 821.764 185.367 817.58 185.396 807.045C185.433 793.706 194.221 777.522 207.731 773.199C212.802 771.575 218.244 772.04 223.451 771.452C223.908 771.397 225.65 769.725 226.118 769.277C222.944 765.636 220.61 764.068 216.981 761.075C200.06 747.106 180.572 729.706 178.142 706.575C176.967 704.07 176.973 703.018 177.011 700.235C176.996 696.071 176.92 695.146 175.859 691.26C173.167 689.207 170.343 688.314 167.358 685.924C162.38 681.943 159.54 677.771 155.567 673.285C146.4 662.94 140.646 653.623 136.633 640.265C135.003 634.838 131.816 619.888 132.119 614.418C132.978 603.854 134.942 593.513 140.218 584.208C142.378 580.397 152.38 565.475 157.363 569.214C167.764 577.019 169.509 594.188 172.735 605.907C176.912 621.079 181.896 633.711 196.022 641.825C202.454 635.334 207.145 623.322 210.167 614.819C205.229 609.027 200.701 607.598 195.816 602.016C195.998 595.764 197.364 590.012 197.756 584.129C197.924 581.6 188.295 578.77 185.774 577.182C180.331 573.748 174.626 569.195 168.78 566.261C166.076 560.556 161.124 558.214 158.652 553.875C156.275 549.703 153.39 540.073 154.755 535.317C158.078 523.737 174.646 508.065 184.699 502.261C187.572 494.464 183.198 480.527 180.639 473.163C180.441 472.591 182.167 465.819 181.844 462.147C173.74 457.483 164.809 454.731 156.602 450.099C126.879 433.311 91.1526 416.229 80.3037 380.958C76.2783 367.87 74.9783 356.245 73.961 343.004C73.0649 337.546 72.8227 329.207 73.9468 323.792C73.828 319.267 74.6861 312.863 74.7784 308.117C74.8688 303.469 74.8096 298.82 74.9178 294.202C74.9807 290.352 76.2159 286.051 76.4507 282.293C76.8188 276.399 77.0055 271.502 78.5857 265.766C79.4029 262.8 80.7572 255.628 79.7768 252.801C79.0206 250.619 71.4374 247.973 69.6109 246.245C67.5554 244.443 66.1068 242.357 64.6049 240.073C53.9051 223.796 54.9956 204.415 56.7674 185.903C57.4257 179.026 60.3259 171.638 59.0917 164.489C57.9916 158.118 53.6133 151.869 51.469 145.735C41.6474 122.712 41.339 98.1166 46.9043 73.9763C47.9806 69.3076 49.3572 64.7019 50.5668 60.1C53.7933 47.8247 57.1789 41.0121 68.2496 34Z" fill="black"/>
<path d="M393.86 417.494C393.947 414.955 397.748 407.589 399.589 405.502C401.811 402.984 405.611 404.513 408.419 404.676C410.048 404.771 411.948 404.758 413.648 404.751C409.639 406.54 401.649 404.517 399.525 406.818C397.75 408.741 395.833 414.948 393.86 417.494Z" fill="#241B18"/>
<path d="M82.1725 42.3154C84.3814 44.4042 88.3297 48.0404 90.0009 50.5609L89.6488 51.2077L89.1361 51.2065C87.2149 49.4245 82.107 44.8198 82.1725 42.3154Z" fill="#241B18"/>
<path d="M73.9469 323.792C74.253 327.827 74.4054 339.018 73.961 343.004C73.065 337.546 72.8227 329.207 73.9469 323.792Z" fill="black"/>
<path d="M383.438 441.095C386.385 440.714 390.633 440.786 393.707 440.754C394.938 441.103 396.064 441.377 397.236 441.901C393.327 442.556 387.319 441.901 383.438 441.095Z" fill="#9E8E67"/>
<path d="M374.883 208.281C377.356 206.649 383.237 206.788 385.749 208.22C382.925 208.465 377.801 208.316 374.883 208.281Z" fill="black"/>
<path d="M53.2554 89.2423C55.1777 110.503 61.6799 134.197 74.1218 151.589C78.7039 157.994 84.2838 162.731 87.1772 170.16C90.1048 177.171 88.5662 184.081 88.6674 191.418C88.8801 206.82 95.9358 222.267 106.812 233.056C109.416 235.64 113.741 236.973 117.302 235.89L117.714 235.299C116.977 232.815 110.577 228.692 108.497 226.083C104.609 221.206 102.399 215.936 100.877 209.922C94.6242 185.195 101.001 161.97 97.4494 136.779C96.0529 127.379 93.5742 118.172 90.0624 109.341C87.3265 102.562 84.0294 95.7499 82.1189 88.698C78.5528 75.534 80.2574 61.5931 77.4038 48.3798C77.0862 46.9092 76.2114 45.1447 76.602 43.7104C82.7833 41.9683 95.7751 81.364 97.8709 87.2209C103.444 102.795 114.655 108.814 127.541 117.601C141.016 127.024 153.256 144.639 157.32 160.693C159.224 168.218 160.322 176.954 160.489 184.667C160.505 185.405 160.716 185.863 161.209 186.408C165.062 183.904 165.495 173.115 165.384 168.896C169.554 166.514 178.02 163.516 182.863 162.533C178.301 171.295 174.083 179.615 177.4 189.899C178.781 194.081 181.802 197.521 185.769 199.43C189.044 200.992 191.539 195.308 192.73 192.915C198.489 181.344 203.766 170.292 218.451 169.958C227.926 169.743 223.733 160.24 222.668 155.584C226.059 155.496 234.106 155.352 237.011 155.624C241.737 156.066 259.437 158.496 262.716 160.547L262.937 161.196C258.607 165.704 247.992 170.187 255.658 178.014C267.989 190.603 274.563 167.955 287.271 178.627C290.365 181.226 293.061 186.683 296.368 188.102C300.08 189.294 300.392 190.755 302.587 194.013C308.433 201.47 313.572 210.09 320.692 216.371C324.041 219.325 328.187 219.889 331.765 223.33C323.904 227.708 316.251 235.777 307.801 239.164C305.742 240.253 302.557 243.172 300.433 242.579C299.234 240.313 301.02 234.871 298.887 231.257C296.397 227.008 292.009 223.327 287.236 221.884C280.37 219.807 279.486 226.176 278.281 230.909C278.345 231.968 278.467 233.88 278.769 234.841C288.174 264.798 331.102 230.111 344.607 222.67C351.812 218.635 359.537 215.611 367.566 213.684C371.401 212.735 385.386 210.573 388.283 212.324C387.094 213.981 378.98 216.353 376.366 217.503C373.841 218.639 371.371 219.894 368.964 221.263C360.221 226.135 352.246 232.272 345.298 239.476C338.643 246.506 322.34 266.882 323.326 277.109C325.942 304.251 361.313 314.832 382.386 324.246C386.42 326.362 395.412 328.223 398.313 331.678C413.86 350.199 398.966 372.898 386.759 385.622C367.656 405.189 341.576 416.38 314.237 416.743C292.461 417.121 268.368 409.003 254.426 391.714C245.374 379.962 241.864 364.688 238.212 350.651C234.175 335.129 226.07 339.267 214.06 340.153C198.553 341.297 192.798 327.504 192.821 314.369C192.839 304.17 193.831 298.213 201.172 290.438C203.821 290.529 207.006 291.191 208.657 288.82C207.502 284.768 199.155 284.285 195.596 284.392C182.199 284.799 172.631 299.57 176.829 312.057C177.185 313.117 177.489 314.089 178.521 314.651C180.649 312.946 183.17 298.299 194.228 290.792C188.77 301.897 186.213 306.578 187.343 319.911C188.104 328.884 192.03 338.148 199.099 343.777C208.749 351.46 214.938 347.671 225.225 345.658C228.043 345.107 230.437 346.239 231.768 348.884C233.79 352.902 234.642 358.959 235.721 363.553C239.485 379.979 247.802 394.181 260.848 405.034C286.654 426.504 324.107 427.007 354.516 416.042C358.065 414.762 363.337 411.737 366.72 411.151C370.606 410.478 368.892 420.171 367.752 421.642C364.823 429.063 358.027 430.332 352.016 434.176C349.237 435.951 346.906 438.634 344.67 440.988C327.976 440.81 310.113 440.845 293.492 441.937C265.975 443.743 238.571 450.321 211.663 456.01C206.7 457.062 201.648 459.269 196.745 460.722C193.398 460.043 190.7 458.618 187.582 457.558C173.231 452.683 160.694 444.275 147.713 436.606C139.458 431.727 131.397 426.713 123.497 421.302C90.541 398.731 87.3034 368.545 86.7213 331.755C86.2645 311.143 87.0376 290.523 89.0361 270.003C89.5139 264.981 89.9223 258.803 91.1081 253.895C91.345 252.915 93.9 249.893 94.7496 248.714C67.5547 246.553 61.9631 215.91 63.4865 193.381C64.1809 183.112 67.6662 174.843 65.4851 164.045C63.6757 155.087 60.8085 149.15 56.1938 141.333C48.5257 126.792 48.6846 108.809 49.8927 92.8285C49.8288 89.7996 49.7988 80.9884 52.0888 79.0377C53.4436 80.4755 53.2173 86.9184 53.2554 89.2423Z" fill="#CE7327"/>
<path d="M275.887 228.508C274.078 222.263 269.102 209.77 272.366 204.522C280.592 191.297 306.876 209.066 310.177 219.539C311.156 222.645 310.78 228.244 310.961 231.524C309.788 235.083 309.287 235.852 307.801 239.164C305.742 240.253 302.557 243.172 300.433 242.579C299.234 240.313 301.02 234.871 298.887 231.257C296.397 227.008 292.009 223.327 287.236 221.884C280.37 219.807 279.485 226.176 278.281 230.909C277.613 230.497 276.471 229.145 275.887 228.508Z" fill="#FEFEFE"/>
<path d="M275.887 228.508C272.441 228.259 269.38 218.867 268.727 215.787C265.742 201.719 269.863 190.556 286.325 195.932C292.081 197.812 294.988 198.802 300.406 202.354C306.094 207.268 310.056 211.324 313.211 218.254C314.435 223.278 314.92 227.477 310.961 231.524C310.78 228.243 311.156 222.645 310.177 219.539C306.876 209.065 280.592 191.297 272.366 204.522C269.102 209.77 274.078 222.262 275.887 228.508Z" fill="black"/>
<path d="M300.406 202.354C302.883 202.385 303.928 202.507 305.719 204.41C307.864 206.691 313.777 215.42 313.212 218.254C310.056 211.324 306.095 207.268 300.406 202.354Z" fill="#C06B25"/>
<path d="M49.8928 92.8284C49.8289 89.7995 49.7988 80.9883 52.0888 79.0376C53.4436 80.4754 53.2174 86.9183 53.2555 89.2422C52.4657 87.7448 52.6668 87.5443 51.4219 86.8202C50.2251 87.9377 50.6244 90.9464 49.8928 92.8284Z" fill="#9C571C"/>
<path d="M296.368 188.102C300.079 189.294 300.392 190.755 302.587 194.013C298.648 193.159 298.068 191.413 296.368 188.102Z" fill="#C06B25"/>
<path d="M198.811 236.345C197.448 236.074 195.933 236.026 195.267 234.65C193.082 230.133 193.534 220.887 194.725 216.211C196.668 208.283 201.699 201.46 208.698 197.263C222.513 189.136 236.903 193.343 244.561 207.07C251.426 219.378 250.467 235.802 237.495 243.626C235.657 244.735 232.647 246.122 230.606 245.014C229.36 245.09 228.799 245.088 227.55 245.017C226.602 244.123 226.862 244.159 226.55 242.64C226.525 248.319 215.173 247.364 211.394 246.759C205.356 245.791 203.619 243.179 200.473 238.489L199.445 236.494L198.811 236.345Z" fill="#FEFEFE"/>
<path d="M201.873 225.8C204.813 221.772 208.493 218.789 213.591 218.015C217.061 217.488 220.596 218.409 223.368 220.562C231.058 226.484 229.938 234.852 226.549 242.64C226.524 248.319 215.173 247.365 211.394 246.759C205.356 245.792 203.619 243.179 200.472 238.49C200.074 233.599 198.874 229.82 201.873 225.8Z" fill="#241B18"/>
<path d="M198.811 236.345C197.448 236.074 195.933 236.026 195.267 234.65C193.082 230.133 193.534 220.887 194.725 216.211C196.668 208.283 201.699 201.46 208.698 197.263C222.513 189.136 236.903 193.343 244.561 207.07C251.426 219.378 250.467 235.802 237.495 243.626C235.657 244.735 232.647 246.122 230.606 245.014C237.219 241.087 240.835 238.394 243.618 230.775C248.261 218.377 243.701 203.383 230.95 198.244C226.439 196.427 216.282 200.55 212.123 202.644C204.58 206.441 200.996 212.335 198.667 220.07C198.75 222.068 198.506 224.483 199.804 225.812C200.692 225.873 200.988 225.879 201.873 225.799C198.874 229.819 200.075 233.598 200.473 238.489L199.445 236.494L198.811 236.345Z" fill="black"/>
<path d="M198.811 236.345C197.537 230.988 197.65 225.457 198.667 220.07C198.75 222.069 198.505 224.483 199.804 225.812C200.692 225.874 200.987 225.88 201.873 225.799C198.874 229.819 200.074 233.599 200.472 238.489L199.445 236.495L198.811 236.345Z" fill="#C06B25"/>
<path d="M258.544 235.811C261.868 238.279 261.046 246.247 259.363 249.308C252.198 262.341 227.359 265.624 215.326 259.767C214.251 259.067 214.052 258.941 213.234 257.96L213.341 257.347C214.261 257.198 215.545 257.343 216.424 257.619C230.03 261.884 246.732 256.726 255.053 245.081C257.001 242.355 257.725 239.158 258.544 235.811Z" fill="black"/>
<path d="M207.318 251.074C208.776 251.862 211.608 254.895 212.051 256.509C209.896 255.25 207.153 253.942 207.318 251.074Z" fill="#561602"/>
<path d="M338.665 476.799C340.118 476.716 341.262 476.823 342.006 478.213C347.56 488.589 348.008 490.92 358.983 495.914C356.146 506.33 357.051 514.127 365.493 521.764C374.208 529.632 384.028 537.826 396.231 538.985C408.881 540.184 412.187 520.895 414.96 511.999C415.729 509.534 415.173 502.495 416.913 500.935C418.84 501.59 421.266 506.056 422.107 508.017C425.872 516.794 427.788 530.085 426.678 539.489C424.222 560.295 416.223 580.707 409.618 600.476C405.325 612.866 398.096 626.97 392.517 638.852C375.535 675.02 349.953 715.443 312.595 733.025C297.253 740.246 283.392 740.254 267.636 734.308C271.989 738.821 276.217 740.214 282.254 741.644C290.067 743.493 289.955 746.181 290.348 753.37C290.683 759.519 291.071 765.835 291.538 771.976L293.351 794.401C293.612 797.724 294.191 803.563 293.862 806.711C293.39 811.233 284.397 819.093 280.877 821.745C261.616 836.278 239.472 839.66 216.067 836.484C215.096 835.603 214.34 834.551 213.528 833.519C215.371 823.178 219.761 809.657 230.521 805.27C231.91 804.707 233.444 804.695 234.604 803.69L234.278 802.885C231.832 800.797 229.397 800.852 226.519 802.186C213.351 808.279 208.657 819.748 208.196 833.34C195.275 823.73 202.143 803.417 213.259 795.255C215.22 793.818 222.594 792.135 223.147 791.408C221.604 788.848 215.756 788.594 213.172 789.701C200.603 795.092 198.948 809.673 194.075 820.256C191.001 806.934 193.804 794.437 203.245 784.175C214.806 771.607 232.913 774.835 244.961 784.743C247.086 786.49 249.895 791.388 252.619 791.329C254.523 789.522 252.073 787.069 250.837 785.485C230.323 761.198 197.093 738.504 186.616 707.845C177.957 682.503 205.515 642.123 215.108 618.979C216.462 615.712 219.58 617.713 222.138 619.066C233.424 625.029 240.04 619.741 248.891 612.993C255.77 608.261 263.671 607.693 268.311 598.531C276.182 582.993 266.316 571.596 257.201 560.148C254.404 556.595 269.611 552.073 271.705 548.62C271.701 547.365 271.886 547.849 270.898 546.825C266.897 545.138 255.859 553.034 251.122 554.32L250.936 554.368C247.789 552.879 242.034 546.841 239.136 547.528C239.052 548.469 239.205 548.949 239.803 549.723C247.418 559.568 257.736 568.679 262.862 580.163C268.006 591.687 263.151 600.786 251.99 605.522C253.406 599.777 256.301 589.496 252.261 584.085C251.737 583.386 251.614 583.347 250.835 583.311C250.585 583.736 249.973 595.796 249.026 599.051C247.366 604.843 243.439 609.722 238.133 612.576C232.903 615.375 227.453 615.303 221.767 613.926C220.716 613.672 220.718 613.592 220.339 612.862C223.319 609.92 232.639 606.395 235.258 600.004C236.74 596.383 239.991 589.889 238.769 586.038C237.667 584.955 238.029 585.272 236.336 584.939C234.112 585.923 233.514 593.303 231.752 596.284C227.312 603.799 214.149 609.777 206.195 604.16C191.401 593.716 211.031 589.762 216.241 583.033C216.446 581.731 216.587 582.116 216.017 581.219C213.665 580.743 207.512 582.545 204.657 581.735C201.184 580.747 197.897 578.583 194.796 577.027C182.696 570.961 173.614 564.503 166.34 552.812C163.306 547.937 160.826 541.006 162.449 535.377C166.166 522.491 189.817 505.441 201.041 498.855C220.03 487.716 241.513 476.319 263.771 483.611C269.82 485.596 276.358 490.332 280.196 491.281L280.547 490.804C280.518 487.712 277.057 486.247 275.633 483.607L276.058 482.984C279.456 481.813 292.858 480.4 296.863 480.094C310.746 479.022 324.774 477.847 338.665 476.799Z" fill="#CE7327"/>
<path d="M317.671 41.4653C323.5 44.3674 325.925 51.9167 325.465 58.0403C324.195 74.9711 303.164 89.9401 287.469 92.4407C280.603 93.5343 274.819 92.9174 268.01 93.2175C266.255 93.5518 263.329 95.2691 262.248 96.5835C248.136 113.741 268.076 134.314 272.997 150.981C273.476 152.606 273.336 155.382 273.309 156.904C269.631 155.754 265.63 153.511 261.376 152.298C254.418 150.314 247.411 149.3 240.291 148.043C232.675 146.739 217.533 147.853 209.983 149.737C215.57 135.828 218.599 122.763 221.873 108.216C223.07 102.9 224.401 97.0015 226.033 91.8658C230.173 78.9317 240.08 68.0051 253.744 65.2668C271.24 61.7606 290.421 61.057 305.461 50.258C309.572 47.3056 313.043 43.7879 317.671 41.4653Z" fill="#CE7327"/>
<path d="M448.653 265.114C451.006 265.623 452.018 267.08 453.356 269.09C464.352 286.033 464.142 309.088 461.154 328.086C457.134 353.64 430.333 405.834 398.413 399.907C394.35 399.087 391.715 397.075 388.778 394.365C390.829 391.631 393.716 388.616 395.996 385.921C406.032 374.059 413.023 358.285 408.822 342.614C407.81 338.839 405.836 335.614 403.784 332.271C415.675 328.104 417.832 326.489 426.099 316.868C439.192 301.633 444.736 284.417 448.653 265.114Z" fill="#CE7327"/>
<path d="M357.805 446.903C364.274 445.712 374.561 463.747 375.272 470.074C368.391 471.487 345.34 471.241 337.174 471.495C313.158 472.234 289.996 473.341 266.367 478.427C243.988 469.38 223.073 477.97 203.25 488.855C199.249 491.205 196.227 493.698 191.813 495.965C191.291 487.112 188.791 478.697 188.029 468.991C189.635 468.641 191.172 468.157 192.707 467.573C200.859 464.469 209.246 462.178 217.742 460.217C254.022 452.036 291.077 447.788 328.267 447.546C335.497 447.51 351.652 448.959 357.805 446.903Z" fill="#01B4AF"/>
<path d="M405.566 479.896C415.448 478.161 436.858 490.55 445.458 495.568C465.868 508.136 466.595 532.09 455.709 551.494C451.355 559.25 438.422 563.712 437.351 565.368C440.529 570.509 451.074 562.248 453.534 563.014C456.705 565.717 454.213 573.823 452.471 577.094C449.383 581.433 447.026 582.648 441.641 582.247C438.662 582.029 436.049 581.683 433.381 580.171C431.096 578.893 429.422 576.745 428.739 574.216C427.057 568.047 433.091 550.08 433.651 542.717C434.162 535.996 441.768 536.746 444.415 531.256C445.577 528.85 447.046 524.781 443.875 523.356C440.132 524.043 438.549 533.554 435.036 532.629C433.451 530.966 433.829 528.402 433.509 526.266C431.378 512.023 427.17 499.157 413.985 492.206C411.147 486.724 407.409 483.933 405.566 479.896Z" fill="#CE7327"/>
<path d="M69.2204 40.4678C77.6738 42.7836 71.9114 85.9383 77.3283 95.1437C87.9834 113.25 91.3777 131.674 90.1431 152.52C90.0102 154.763 90.4519 160.309 89.7598 162.114L89.1137 162.386C87.7144 161.689 86.6786 160.05 85.7091 158.765C72.7891 141.45 65.3783 121.797 61.4535 100.655C58.2583 83.4425 58.8969 55.3716 69.2204 40.4678Z" fill="#E4AEA6"/>
<path d="M392.342 474.949C395.56 474.715 406.691 486.787 408.878 489.923C414.353 497.771 407.924 537.278 394.056 532.371C382.272 528.199 368.64 516.774 361.413 506.29C359.665 503.757 362.486 496.791 363.416 493.909C365.109 489.113 369.326 483.071 373.265 479.872C373.414 481.694 373.428 483.583 373.47 485.417C379.476 493.635 373.959 496.862 372.363 505.008C371.037 511.768 389.633 526.615 395.297 520.657C399.442 516.298 402.564 506.949 402.671 500.836C402.863 489.74 379.352 487.116 392.342 474.949Z" fill="#EAD402"/>
<path d="M277.686 97.3433C280.498 97.6958 282.3 98.2615 284.908 99.2642C288.107 103.076 288.398 106.863 290.392 111.072C296.072 123.011 300.002 135.074 298.421 148.486C298.041 151.708 297.55 162.087 294.553 163.727C293.004 163.831 293.49 163.828 291.986 163.045C285.957 158.874 284.8 158.135 277.513 157.489C277.579 153.305 278.077 150.351 276.993 146.186C275.543 140.615 273.105 137.281 272.589 131.561C275.897 123.16 282.102 118.513 280.008 107.827C279.367 104.551 277.701 100.493 277.686 97.3433Z" fill="#CE7327"/>
<path d="M385.406 397.478C386.898 398.04 392.016 402.793 394.11 404.356C392.572 408.368 389.16 413.724 387.111 417.817C383.039 425.953 380.983 432.331 378.67 441.084C376.23 440.206 375.383 439.841 373.086 438.595C369.082 435.625 367.002 435.76 362.635 433.676C368.368 429.112 374.579 423.783 375.265 415.811C375.558 412.411 374.364 410.146 373.077 407.101C376.727 404.629 381.823 400.344 385.406 397.478Z" fill="#C06B25"/>
<path d="M359.081 437.054C364.353 436.645 370.381 440.123 374.176 443.668C381.429 450.48 386.428 458.638 387.055 468.697C387.34 473.286 384.528 485.997 379.156 486.12C377.852 485.795 377.202 484.842 376.298 483.826C376.016 481.912 376.286 480.713 377.21 479.022C384.788 465.168 371.959 447.904 359.214 442.791C357.452 442.084 351.574 443.33 350.241 441.997C350.153 438.773 356.513 437.368 359.081 437.054Z" fill="#EAD402"/>
<path d="M381.979 491.547C383.727 491.519 384.734 491.678 386.326 492.388C402.555 499.645 398.765 505.584 392.723 518.99C391.72 519.22 390.513 519.192 389.629 518.676C374.752 509.97 374.728 505.56 381.979 491.547Z" fill="#01B4AF"/>
<path d="M384.682 445.379C386.585 445.3 393.994 444.779 395.071 446.308C397.913 450.337 402.393 468.189 399.414 471.901C391.562 472.425 390.877 472.881 390.467 464.263C390.227 459.217 383.772 450.508 383.822 446.125L384.682 445.379Z" fill="#01B4AF"/>
<path d="M267.846 96.7918C269.001 96.7454 269.556 96.5902 270.487 97.2364C275.094 103.121 275.326 121.818 270.482 128.016C270.017 128.61 269.859 128.585 269.216 128.617C269.128 128.459 269.041 128.3 268.956 128.14C264.395 119.461 256.027 103.014 267.846 96.7918Z" fill="#E4AEA6"/>
<path d="M349.272 475.751C354.406 475.767 360.427 481.995 363.703 485.612C362.869 487.549 362.132 488.72 361.046 490.498L360.473 490.84C357.384 490.681 348.728 481.571 347.88 478.399C348.097 476.787 348.109 477.188 349.272 475.751Z" fill="#EAD402"/>
<path d="M359.985 476.422C362.551 476.363 366.436 475.656 367.377 478.486C367.151 480.074 366.396 480.694 365.313 481.892L364.738 482.039C362.676 481.571 359.696 478.963 359.298 476.879L359.985 476.422Z" fill="#CE7327"/>
</g>
</g>
<defs>
<clipPath id="clip0_10_45">
<rect width="512" height="512" fill="white"/>
</clipPath>
<clipPath id="clip1_10_45">
<rect width="429" height="813" fill="white" transform="translate(42 34)"/>
</clipPath>
</defs>
</svg>
